<mxfile host="65bd71144e">
    <diagram id="AHKYRmReE5UFl7ruI-dM" name="Page-1">
        <mxGraphModel dx="704" dy="664" grid="1" gridSize="1" guides="1" tooltips="1" connect="1" arrows="1" fold="1" page="1" pageScale="1" pageWidth="583" pageHeight="827" math="0" shadow="0">
            <root>
                <mxCell id="0"/>
                <mxCell id="1" parent="0"/>
                <mxCell id="2" value="Harbour&lt;br style=&quot;font-size: 8px;&quot;&gt;Infrastructure&lt;br style=&quot;font-size: 8px;&quot;&gt;Layer" style="rounded=0;whiteSpace=wrap;html=1;fontFamily=Courier New;fillColor=#f5f5f5;verticalAlign=top;strokeColor=#666666;fontColor=#333333;fontSize=8;labelPosition=center;verticalLabelPosition=middle;align=right;spacing=0;spacingRight=5;" parent="1" vertex="1">
                    <mxGeometry x="237" y="557" width="428" height="60" as="geometry"/>
                </mxCell>
                <mxCell id="3" value="actions/" style="rounded=0;whiteSpace=wrap;html=1;fontFamily=Courier New;verticalAlign=top;dashed=1;dashPattern=1 1;fillColor=#F2F2F2;opacity=50;" parent="1" vertex="1">
                    <mxGeometry x="427.5" y="300" width="185" height="183.75" as="geometry"/>
                </mxCell>
                <mxCell id="4" value="config/" style="rounded=0;whiteSpace=wrap;html=1;fontFamily=Courier New;verticalAlign=bottom;dashed=1;dashPattern=1 1;fillColor=#F2F2F2;opacity=50;" parent="1" vertex="1">
                    <mxGeometry x="258" y="371" width="135" height="74.5" as="geometry"/>
                </mxCell>
                <mxCell id="5" style="edgeStyle=none;rounded=0;html=1;exitX=0.5;exitY=0;exitDx=0;exitDy=0;entryX=0;entryY=0.5;entryDx=0;entryDy=0;startArrow=none;startFill=0;fillColor=#f0a30a;strokeColor=#BD7000;" parent="1" source="6" target="18" edge="1">
                    <mxGeometry relative="1" as="geometry">
                        <Array as="points">
                            <mxPoint x="325" y="360"/>
                        </Array>
                    </mxGeometry>
                </mxCell>
                <mxCell id="6" value="&lt;font face=&quot;Courier New&quot;&gt;config.toml&lt;br&gt;&lt;/font&gt;" style="rounded=0;whiteSpace=wrap;html=1;" parent="1" vertex="1">
                    <mxGeometry x="265" y="379" width="120" height="45" as="geometry"/>
                </mxCell>
                <mxCell id="10" value="apply-stage4.sh" style="rounded=1;whiteSpace=wrap;html=1;fontFamily=Courier New;strokeColor=#36393d;fillColor=#FFFFFF;" parent="1" vertex="1">
                    <mxGeometry x="440" y="410" width="160" height="60" as="geometry"/>
                </mxCell>
                <mxCell id="11" value="inventory/" style="rounded=0;whiteSpace=wrap;html=1;fontFamily=Courier New;verticalAlign=top;dashed=1;dashPattern=1 1;fillColor=#F2F2F2;opacity=50;" parent="1" vertex="1">
                    <mxGeometry x="669" y="300" width="180" height="202" as="geometry"/>
                </mxCell>
                <mxCell id="13" value="04_k8s_service_layer/" style="rounded=0;whiteSpace=wrap;html=1;dashed=1;dashPattern=1 1;fontFamily=Courier New;verticalAlign=top;fillColor=#E3E3E3;opacity=75;" parent="1" vertex="1">
                    <mxGeometry x="679" y="330" width="160" height="90" as="geometry"/>
                </mxCell>
                <mxCell id="14" value=".etc/" style="rounded=0;whiteSpace=wrap;html=1;dashed=1;dashPattern=1 1;fontFamily=Courier New;verticalAlign=top;fillColor=#E3E3E3;opacity=75;" parent="1" vertex="1">
                    <mxGeometry x="679" y="430" width="160" height="65" as="geometry"/>
                </mxCell>
                <mxCell id="16" value="group&lt;br&gt;vars" style="rounded=0;whiteSpace=wrap;html=1;fontFamily=Courier New;verticalAlign=middle;dashed=1;dashPattern=1 1;" parent="1" vertex="1">
                    <mxGeometry x="709" y="361" width="100" height="45" as="geometry"/>
                </mxCell>
                <mxCell id="17" style="edgeStyle=none;rounded=0;html=1;exitX=0.999;exitY=0.467;exitDx=0;exitDy=0;entryX=0;entryY=0.5;entryDx=0;entryDy=0;fontFamily=Courier New;fillColor=#f0a30a;strokeColor=#BD7000;exitPerimeter=0;" parent="1" source="18" target="16" edge="1">
                    <mxGeometry relative="1" as="geometry">
                        <Array as="points">
                            <mxPoint x="640" y="358"/>
                            <mxPoint x="640" y="383"/>
                        </Array>
                    </mxGeometry>
                </mxCell>
                <mxCell id="18" value="update_inventory.py" style="rounded=1;whiteSpace=wrap;html=1;fontFamily=Courier New;strokeColor=#36393d;fillColor=#FFFFFF;" parent="1" vertex="1">
                    <mxGeometry x="440" y="330" width="160" height="60" as="geometry"/>
                </mxCell>
                <mxCell id="19" value="frontend nodes" style="rounded=0;whiteSpace=wrap;html=1;verticalAlign=middle;fontFamily=Courier New;" parent="1" vertex="1">
                    <mxGeometry x="250" y="566" width="100" height="40" as="geometry"/>
                </mxCell>
                <mxCell id="20" value="frontend nodes" style="rounded=0;whiteSpace=wrap;html=1;verticalAlign=middle;fontFamily=Courier New;" parent="1" vertex="1">
                    <mxGeometry x="248" y="568" width="100" height="40" as="geometry"/>
                </mxCell>
                <mxCell id="21" value="frontend&lt;br&gt;nodes" style="rounded=0;whiteSpace=wrap;html=1;verticalAlign=middle;fontFamily=Courier New;" parent="1" vertex="1">
                    <mxGeometry x="246" y="570" width="100" height="40" as="geometry"/>
                </mxCell>
                <mxCell id="22" value="co" style="rounded=0;whiteSpace=wrap;html=1;verticalAlign=middle;fontFamily=Courier New;" parent="1" vertex="1">
                    <mxGeometry x="367" y="566" width="100" height="40" as="geometry"/>
                </mxCell>
                <mxCell id="23" value="frontend nodes" style="rounded=0;whiteSpace=wrap;html=1;verticalAlign=middle;fontFamily=Courier New;" parent="1" vertex="1">
                    <mxGeometry x="365" y="568" width="100" height="40" as="geometry"/>
                </mxCell>
                <mxCell id="24" value="control&lt;br&gt;plane" style="rounded=0;whiteSpace=wrap;html=1;verticalAlign=middle;fontFamily=Courier New;" parent="1" vertex="1">
                    <mxGeometry x="363" y="570" width="100" height="40" as="geometry"/>
                </mxCell>
                <mxCell id="25" value="frontend nodes" style="rounded=0;whiteSpace=wrap;html=1;verticalAlign=middle;fontFamily=Courier New;" parent="1" vertex="1">
                    <mxGeometry x="482" y="566" width="100" height="40" as="geometry"/>
                </mxCell>
                <mxCell id="26" value="frontend nodes" style="rounded=0;whiteSpace=wrap;html=1;verticalAlign=middle;fontFamily=Courier New;" parent="1" vertex="1">
                    <mxGeometry x="480" y="568" width="100" height="40" as="geometry"/>
                </mxCell>
                <mxCell id="27" value="(meta-)&lt;br&gt;worker" style="rounded=0;whiteSpace=wrap;html=1;verticalAlign=middle;fontFamily=Courier New;" parent="1" vertex="1">
                    <mxGeometry x="478" y="570" width="100" height="40" as="geometry"/>
                </mxCell>
                <mxCell id="28" value="" style="rounded=0;whiteSpace=wrap;html=1;fontFamily=Courier New;fillColor=#dae8fc;verticalAlign=middle;strokeColor=#6c8ebf;fontSize=12;labelPosition=center;verticalLabelPosition=middle;align=center;spacing=0;spacingRight=5;" parent="1" vertex="1">
                    <mxGeometry x="237" y="511" width="313" height="40" as="geometry"/>
                </mxCell>
                <mxCell id="29" value="&lt;span style=&quot;font-family: &amp;quot;courier new&amp;quot;; font-size: 12px;&quot;&gt;Kubernetes&lt;br style=&quot;font-size: 12px;&quot;&gt;Cluster&lt;/span&gt;" style="aspect=fixed;html=1;points=[];align=left;image;fontSize=12;image=img/lib/mscae/Kubernetes.svg;labelBackgroundColor=none;labelPosition=right;verticalLabelPosition=middle;verticalAlign=middle;spacing=9;" parent="1" vertex="1">
                    <mxGeometry x="245" y="516.6" width="30" height="28.8" as="geometry"/>
                </mxCell>
                <mxCell id="30" value="admin.conf" style="rounded=0;whiteSpace=wrap;html=1;fontFamily=Courier New;verticalAlign=middle;" parent="1" vertex="1">
                    <mxGeometry x="689" y="455" width="140" height="30" as="geometry"/>
                </mxCell>
                <mxCell id="12" style="edgeStyle=none;html=1;entryX=1;entryY=0.25;entryDx=0;entryDy=0;rounded=0;fillColor=#f0a30a;strokeColor=#BD7000;exitX=0;exitY=0.5;exitDx=0;exitDy=0;" parent="1" source="16" target="10" edge="1">
                    <mxGeometry relative="1" as="geometry">
                        <mxPoint x="680" y="343" as="sourcePoint"/>
                        <Array as="points">
                            <mxPoint x="640" y="383"/>
                            <mxPoint x="640" y="425"/>
                        </Array>
                    </mxGeometry>
                </mxCell>
                <mxCell id="31" style="edgeStyle=none;html=1;exitX=1;exitY=0.75;exitDx=0;exitDy=0;entryX=0;entryY=0.5;entryDx=0;entryDy=0;fontSize=12;startArrow=classic;startFill=1;fillColor=#e51400;strokeColor=#B20000;rounded=0;endArrow=none;endFill=0;" parent="1" source="10" target="30" edge="1">
                    <mxGeometry relative="1" as="geometry">
                        <Array as="points">
                            <mxPoint x="650" y="455"/>
                            <mxPoint x="650" y="470"/>
                        </Array>
                    </mxGeometry>
                </mxCell>
                <mxCell id="36" value="API" style="html=1;dashed=0;whitespace=wrap;fillColor=#2875E2;strokeColor=#ffffff;points=[[0.005,0.63,0],[0.1,0.2,0],[0.9,0.2,0],[0.5,0,0],[0.995,0.63,0],[0.72,0.99,0],[0.5,1,0],[0.28,0.99,0]];shape=mxgraph.kubernetes.icon;prIcon=api;fontFamily=Courier New;fontSize=12;align=left;labelPosition=right;verticalLabelPosition=middle;verticalAlign=middle;spacing=4;" parent="1" vertex="1">
                    <mxGeometry x="394" y="517" width="28" height="29" as="geometry"/>
                </mxCell>
                <mxCell id="9" value="&lt;font face=&quot;Courier New&quot;&gt;interact&lt;br&gt;&lt;/font&gt;" style="edgeStyle=none;rounded=0;html=1;exitX=0;exitY=0.5;exitDx=0;exitDy=0;labelBackgroundColor=none;fontSize=10;startArrow=classic;startFill=1;fillColor=#0050ef;strokeColor=#001DBC;align=left;labelPosition=right;verticalLabelPosition=middle;verticalAlign=middle;spacing=4;entryX=0.504;entryY=0.063;entryDx=0;entryDy=0;entryPerimeter=0;" parent="1" source="10" target="36" edge="1">
                    <mxGeometry x="0.6242" relative="1" as="geometry">
                        <Array as="points">
                            <mxPoint x="408" y="440"/>
                        </Array>
                        <mxPoint as="offset"/>
                        <mxPoint x="409" y="519" as="targetPoint"/>
                    </mxGeometry>
                </mxCell>
                <mxCell id="40" style="edgeStyle=none;html=1;exitX=1;exitY=0.5;exitDx=0;exitDy=0;entryX=0.469;entryY=0.016;entryDx=0;entryDy=0;entryPerimeter=0;fontFamily=Courier New;fontSize=10;endArrow=classic;endFill=1;rounded=0;startArrow=classic;startFill=1;fillColor=#008a00;strokeColor=#005700;" parent="1" source="37" target="28" edge="1">
                    <mxGeometry relative="1" as="geometry">
                        <Array as="points">
                            <mxPoint x="384" y="484"/>
                        </Array>
                    </mxGeometry>
                </mxCell>
                <mxCell id="37" value="" style="rounded=0;whiteSpace=wrap;html=1;fontFamily=Courier New;fillColor=#d5e8d4;verticalAlign=middle;strokeColor=#82b366;fontSize=12;labelPosition=center;verticalLabelPosition=middle;align=center;spacing=0;spacingRight=5;" parent="1" vertex="1">
                    <mxGeometry x="237" y="463" width="118" height="42" as="geometry"/>
                </mxCell>
                <mxCell id="39" value="Services" style="aspect=fixed;html=1;points=[];align=left;image;fontSize=12;image=img/lib/mscae/Kubernetes_Services.svg;fontFamily=Courier New;labelBackgroundColor=none;labelPosition=right;verticalLabelPosition=middle;verticalAlign=middle;spacing=3;" parent="1" vertex="1">
                    <mxGeometry x="242" y="467" width="45.95" height="34" as="geometry"/>
                </mxCell>
            </root>
        </mxGraphModel>
    </diagram>
</mxfile>